<?xml version="1.0"?>
<svg xmlns="http://www.w3.org/2000/svg" xmlns:xlink="http://www.w3.org/1999/xlink" xmlns:ev="http://www.w3.org/2001/xml-events" version="1.1" baseProfile="full" viewBox="-851 -1 1522 382">
	<g>
		<g>
			<polygon points="-10,10.8824,-4.90948,10.0767,-5.12922,12.567," stroke="#000000" />
			<path fill="none" d=" M-10,10.8824 L660,70" stroke="#000000" />
		</g>
		<g>
			<polygon points="-10,11,-4.90043,10.2537,-5.14919,12.7413," stroke="#000000" />
			<path fill="none" d=" M-10,11 L580,70" stroke="#000000" />
		</g>
		<g>
			<polygon points="-10,11.1538,-4.88968,10.4852,-5.17624,12.9687," stroke="#000000" />
			<path fill="none" d=" M-10,11.1538 L500,70" stroke="#000000" />
		</g>
		<g>
			<polygon points="-10,11.3636,-4.87696,10.8007,-5.21474,13.2777," stroke="#000000" />
			<path fill="none" d=" M-10,11.3636 L420,70" stroke="#000000" />
		</g>
		<g>
			<polygon points="-10,11.6667,-4.86253,11.2557,-5.27353,13.7217," stroke="#000000" />
			<path fill="none" d=" M-10,11.6667 L340,70" stroke="#000000" />
		</g>
		<g>
			<polygon points="-10,12.1429,-4.84908,11.9682,-5.3729,14.4128," stroke="#000000" />
			<path fill="none" d=" M-10,12.1429 L260,70" stroke="#000000" />
		</g>
		<g>
			<polygon points="-10,13,-4.85168,13.2395,-5.57005,15.634," stroke="#000000" />
			<path fill="none" d=" M-10,13 L180,70" stroke="#000000" />
		</g>
		<g>
			<polygon points="-10,15,-4.96885,16.118,-6.08688,18.3541," stroke="#000000" />
			<path fill="none" d=" M-10,15 L100,70" stroke="#000000" />
		</g>
		<g>
			<polygon points="-10,25,-6.18644,28.4669,-8.26656,29.8536," stroke="#000000" />
			<path fill="none" d=" M-10,25 L20,70" stroke="#000000" />
		</g>
		<g>
			<polygon points="-30,25,-31.7334,29.8536,-33.8136,28.4669," stroke="#000000" />
			<path fill="none" d=" M-30,25 L-60,70" stroke="#000000" />
		</g>
		<g>
			<polygon points="-30,15,-33.9131,18.3541,-35.0312,16.118," stroke="#000000" />
			<path fill="none" d=" M-30,15 L-140,70" stroke="#000000" />
		</g>
		<g>
			<polygon points="-30,13,-34.4299,15.634,-35.1483,13.2395," stroke="#000000" />
			<path fill="none" d=" M-30,13 L-220,70" stroke="#000000" />
		</g>
		<g>
			<polygon points="-30,12.1429,-34.6271,14.4128,-35.1509,11.9682," stroke="#000000" />
			<path fill="none" d=" M-30,12.1429 L-300,70" stroke="#000000" />
		</g>
		<g>
			<polygon points="-30,11.6667,-34.7265,13.7217,-35.1375,11.2557," stroke="#000000" />
			<path fill="none" d=" M-30,11.6667 L-380,70" stroke="#000000" />
		</g>
		<g>
			<polygon points="-30,11.3636,-34.7853,13.2777,-35.123,10.8007," stroke="#000000" />
			<path fill="none" d=" M-30,11.3636 L-460,70" stroke="#000000" />
		</g>
		<g>
			<polygon points="-30,11.1538,-34.8238,12.9687,-35.1103,10.4852," stroke="#000000" />
			<path fill="none" d=" M-30,11.1538 L-540,70" stroke="#000000" />
		</g>
		<g>
			<polygon points="-30,11,-34.8508,12.7413,-35.0996,10.2537," stroke="#000000" />
			<path fill="none" d=" M-30,11 L-620,70" stroke="#000000" />
		</g>
		<g>
			<polygon points="-30,10.8824,-34.8708,12.567,-35.0905,10.0767," stroke="#000000" />
			<path fill="none" d=" M-30,10.8824 L-700,70" stroke="#000000" />
		</g>
		<g>
			<polygon points="650,71.6667,645.274,73.7217,644.863,71.2557," stroke="#000000" />
			<path fill="none" d=" M650,71.6667 L300,130" stroke="#000000" />
		</g>
		<g>
			<polygon points="570,72.1429,565.373,74.4128,564.849,71.9682," stroke="#000000" />
			<path fill="none" d=" M570,72.1429 L300,130" stroke="#000000" />
		</g>
		<g>
			<polygon points="490,73,485.57,75.634,484.852,73.2395," stroke="#000000" />
			<path fill="none" d=" M490,73 L300,130" stroke="#000000" />
		</g>
		<g>
			<polygon points="410,75,406.087,78.3541,404.969,76.118," stroke="#000000" />
			<path fill="none" d=" M410,75 L300,130" stroke="#000000" />
		</g>
		<g>
			<polygon points="330,85,328.267,89.8536,326.186,88.4669," stroke="#000000" />
			<path fill="none" d=" M330,85 L300,130" stroke="#000000" />
		</g>
		<g>
			<polygon points="270,85,273.814,88.4669,271.733,89.8536," stroke="#000000" />
			<path fill="none" d=" M270,85 L300,130" stroke="#000000" />
		</g>
		<g>
			<polygon points="190,75,195.031,76.118,193.913,78.3541," stroke="#000000" />
			<path fill="none" d=" M190,75 L300,130" stroke="#000000" />
		</g>
		<g>
			<polygon points="110,73,115.148,73.2395,114.43,75.634," stroke="#000000" />
			<path fill="none" d=" M110,73 L300,130" stroke="#000000" />
		</g>
		<g>
			<polygon points="30,72.1429,35.1509,71.9682,34.6271,74.4128," stroke="#000000" />
			<path fill="none" d=" M30,72.1429 L300,130" stroke="#000000" />
		</g>
		<g>
			<polygon points="-50,71.6667,-44.8625,71.2557,-45.2735,73.7217," stroke="#000000" />
			<path fill="none" d=" M-50,71.6667 L300,130" stroke="#000000" />
		</g>
		<g>
			<polygon points="-70,71.875,-74.684,74.025,-75.1447,71.5679," stroke="#000000" />
			<path fill="none" d=" M-70,71.875 L-380,130" stroke="#000000" />
		</g>
		<g>
			<polygon points="-150,72.5,-154.548,74.9254,-155.154,72.5," stroke="#000000" />
			<path fill="none" d=" M-150,72.5 L-380,130" stroke="#000000" />
		</g>
		<g>
			<polygon points="-230,73.75,-234.243,76.676,-235.121,74.3352," stroke="#000000" />
			<path fill="none" d=" M-230,73.75 L-380,130" stroke="#000000" />
		</g>
		<g>
			<polygon points="-310,77.5,-313.25,81.5,-314.75,79.5," stroke="#000000" />
			<path fill="none" d=" M-310,77.5 L-380,130" stroke="#000000" />
		</g>
		<g>
			<polygon points="-380,80,-381.25,85,-378.75,85," stroke="#000000" />
			<path fill="none" d=" M-380,85 L-380,130" stroke="#000000" />
		</g>
		<g>
			<polygon points="-450,77.5,-445.25,79.5,-446.75,81.5," stroke="#000000" />
			<path fill="none" d=" M-450,77.5 L-380,130" stroke="#000000" />
		</g>
		<g>
			<polygon points="-530,73.75,-524.879,74.3352,-525.757,76.676," stroke="#000000" />
			<path fill="none" d=" M-530,73.75 L-380,130" stroke="#000000" />
		</g>
		<g>
			<polygon points="-610,72.5,-604.846,72.5,-605.452,74.9254," stroke="#000000" />
			<path fill="none" d=" M-610,72.5 L-380,130" stroke="#000000" />
		</g>
		<g>
			<polygon points="-690,71.875,-684.855,71.5679,-685.316,74.025," stroke="#000000" />
			<path fill="none" d=" M-690,71.875 L-380,130" stroke="#000000" />
		</g>
		<g>
			<polygon points="310,134.286,315.088,135.106,314.103,137.404," stroke="#000000" />
			<path fill="none" d=" M310,134.286 L440,190" stroke="#000000" />
		</g>
		<g>
			<polygon points="310,140,314.419,142.652,312.652,144.419," stroke="#000000" />
			<path fill="none" d=" M310,140 L360,190" stroke="#000000" />
		</g>
		<g>
			<polygon points="296.667,140,296.271,145.139,293.9,144.348," stroke="#000000" />
			<path fill="none" d=" M296.667,140 L280,190" stroke="#000000" />
		</g>
		<g>
			<polygon points="290,136,286.356,139.644,285.069,137.501," stroke="#000000" />
			<path fill="none" d=" M290,136 L200,190" stroke="#000000" />
		</g>
		<g>
			<polygon points="290,133.333,285.652,136.1,284.861,133.729," stroke="#000000" />
			<path fill="none" d=" M290,133.333 L120,190" stroke="#000000" />
		</g>
		<g>
			<polygon points="-370,131.2,-364.887,130.555,-365.185,133.037," stroke="#000000" />
			<path fill="none" d=" M-370,131.2 L120,190" stroke="#000000" />
		</g>
		<g>
			<polygon points="-370,131.429,-364.873,130.898,-365.227,133.373," stroke="#000000" />
			<path fill="none" d=" M-370,131.429 L40,190" stroke="#000000" />
		</g>
		<g>
			<polygon points="-370,131.765,-364.859,131.403,-365.293,133.865," stroke="#000000" />
			<path fill="none" d=" M-370,131.765 L-40,190" stroke="#000000" />
		</g>
		<g>
			<polygon points="-370,132.308,-364.847,132.214,-365.409,134.65," stroke="#000000" />
			<path fill="none" d=" M-370,132.308 L-120,190" stroke="#000000" />
		</g>
		<g>
			<polygon points="-370,133.333,-364.861,133.729,-365.652,136.1," stroke="#000000" />
			<path fill="none" d=" M-370,133.333 L-200,190" stroke="#000000" />
		</g>
		<g>
			<polygon points="-370,136,-365.069,137.501,-366.356,139.644," stroke="#000000" />
			<path fill="none" d=" M-370,136 L-280,190" stroke="#000000" />
		</g>
		<g>
			<polygon points="-376.667,140,-373.9,144.348,-376.271,145.139," stroke="#000000" />
			<path fill="none" d=" M-376.667,140 L-360,190" stroke="#000000" />
		</g>
		<g>
			<polygon points="-390,140,-392.652,144.419,-394.419,142.652," stroke="#000000" />
			<path fill="none" d=" M-390,140 L-440,190" stroke="#000000" />
		</g>
		<g>
			<polygon points="-390,134.286,-394.103,137.404,-395.088,135.106," stroke="#000000" />
			<path fill="none" d=" M-390,134.286 L-520,190" stroke="#000000" />
		</g>
		<g>
			<polygon points="-390,132.727,-394.495,135.249,-395.153,132.837," stroke="#000000" />
			<path fill="none" d=" M-390,132.727 L-600,190" stroke="#000000" />
		</g>
		<g>
			<polygon points="-390,132,-394.658,134.206,-395.148,131.755," stroke="#000000" />
			<path fill="none" d=" M-390,132 L-680,190" stroke="#000000" />
		</g>
		<g>
			<polygon points="-390,131.579,-394.744,133.593,-395.134,131.124," stroke="#000000" />
			<path fill="none" d=" M-390,131.579 L-760,190" stroke="#000000" />
		</g>
		<g>
			<polygon points="-390,131.304,-394.796,133.191,-395.12,130.712," stroke="#000000" />
			<path fill="none" d=" M-390,131.304 L-840,190" stroke="#000000" />
		</g>
		<g>
			<polygon points="430,191.364,425.215,193.278,424.877,190.801," stroke="#000000" />
			<path fill="none" d=" M430,191.364 L0,250" stroke="#000000" />
		</g>
		<g>
			<polygon points="350,191.667,345.274,193.722,344.863,191.256," stroke="#000000" />
			<path fill="none" d=" M350,191.667 L0,250" stroke="#000000" />
		</g>
		<g>
			<polygon points="270,192.143,265.373,194.413,264.849,191.968," stroke="#000000" />
			<path fill="none" d=" M270,192.143 L0,250" stroke="#000000" />
		</g>
		<g>
			<polygon points="190,193,185.57,195.634,184.852,193.239," stroke="#000000" />
			<path fill="none" d=" M190,193 L0,250" stroke="#000000" />
		</g>
		<g>
			<polygon points="110,195,106.087,198.354,104.969,196.118," stroke="#000000" />
			<path fill="none" d=" M110,195 L0,250" stroke="#000000" />
		</g>
		<g>
			<polygon points="30,205,28.2666,209.854,26.1864,208.467," stroke="#000000" />
			<path fill="none" d=" M30,205 L0,250" stroke="#000000" />
		</g>
		<g>
			<polygon points="-30,205,-26.1864,208.467,-28.2666,209.854," stroke="#000000" />
			<path fill="none" d=" M-30,205 L0,250" stroke="#000000" />
		</g>
		<g>
			<polygon points="-110,195,-104.969,196.118,-106.087,198.354," stroke="#000000" />
			<path fill="none" d=" M-110,195 L0,250" stroke="#000000" />
		</g>
		<g>
			<polygon points="-190,193,-184.852,193.239,-185.57,195.634," stroke="#000000" />
			<path fill="none" d=" M-190,193 L0,250" stroke="#000000" />
		</g>
		<g>
			<polygon points="-270,192.143,-264.849,191.968,-265.373,194.413," stroke="#000000" />
			<path fill="none" d=" M-270,192.143 L0,250" stroke="#000000" />
		</g>
		<g>
			<polygon points="-350,191.667,-344.863,191.256,-345.274,193.722," stroke="#000000" />
			<path fill="none" d=" M-350,191.667 L0,250" stroke="#000000" />
		</g>
		<g>
			<polygon points="-430,191.364,-424.877,190.801,-425.215,193.278," stroke="#000000" />
			<path fill="none" d=" M-430,191.364 L0,250" stroke="#000000" />
		</g>
		<g>
			<polygon points="-450,193,-454.43,195.634,-455.148,193.239," stroke="#000000" />
			<path fill="none" d=" M-450,193 L-640,250" stroke="#000000" />
		</g>
		<g>
			<polygon points="-530,195,-533.913,198.354,-535.031,196.118," stroke="#000000" />
			<path fill="none" d=" M-530,195 L-640,250" stroke="#000000" />
		</g>
		<g>
			<polygon points="-610,205,-611.733,209.854,-613.814,208.467," stroke="#000000" />
			<path fill="none" d=" M-610,205 L-640,250" stroke="#000000" />
		</g>
		<g>
			<polygon points="-670,205,-666.186,208.467,-668.267,209.854," stroke="#000000" />
			<path fill="none" d=" M-670,205 L-640,250" stroke="#000000" />
		</g>
		<g>
			<polygon points="-750,195,-744.969,196.118,-746.087,198.354," stroke="#000000" />
			<path fill="none" d=" M-750,195 L-640,250" stroke="#000000" />
		</g>
		<g>
			<polygon points="-830,193,-824.852,193.239,-825.57,195.634," stroke="#000000" />
			<path fill="none" d=" M-830,193 L-640,250" stroke="#000000" />
		</g>
		<g>
			<polygon points="0,260,-1.25,265,1.25,265," stroke="#000000" />
			<path fill="none" d=" M0,265 L0,310" stroke="#000000" />
		</g>
		<g>
			<polygon points="-10,251.875,-14.684,254.025,-15.1447,251.568," stroke="#000000" />
			<path fill="none" d=" M-10,251.875 L-320,310" stroke="#000000" />
		</g>
		<g>
			<polygon points="-630,251.875,-624.855,251.568,-625.316,254.025," stroke="#000000" />
			<path fill="none" d=" M-630,251.875 L-320,310" stroke="#000000" />
		</g>
		<g>
			<polygon points="0,320,-1.25,325,1.25,325," stroke="#000000" />
			<path fill="none" d=" M0,325 L0,370" stroke="#000000" />
		</g>
		<g>
			<polygon points="-10,317.5,-13.25,321.5,-14.75,319.5," stroke="#000000" />
			<path fill="none" d=" M-10,317.5 L-80,370" stroke="#000000" />
		</g>
		<g>
			<polygon points="-310,312.5,-304.846,312.5,-305.452,314.925," stroke="#000000" />
			<path fill="none" d=" M-310,312.5 L-80,370" stroke="#000000" />
		</g>
		<g>
			<polygon points="-310,313.75,-304.879,314.335,-305.757,316.676," stroke="#000000" />
			<path fill="none" d=" M-310,313.75 L-160,370" stroke="#000000" />
		</g>
		<g>
			<polygon points="-310,317.5,-305.25,319.5,-306.75,321.5," stroke="#000000" />
			<path fill="none" d=" M-310,317.5 L-240,370" stroke="#000000" />
		</g>
		<g>
			<polygon points="-320,320,-321.25,325,-318.75,325," stroke="#000000" />
			<path fill="none" d=" M-320,325 L-320,370" stroke="#000000" />
		</g>
		<g>
			<polygon points="-330,317.5,-333.25,321.5,-334.75,319.5," stroke="#000000" />
			<path fill="none" d=" M-330,317.5 L-400,370" stroke="#000000" />
		</g>
		<g>
			<polygon points="-330,313.75,-334.243,316.676,-335.121,314.335," stroke="#000000" />
			<path fill="none" d=" M-330,313.75 L-480,370" stroke="#000000" />
		</g>
		<g>
			<polygon points="-330,312.5,-334.548,314.925,-335.154,312.5," stroke="#000000" />
			<path fill="none" d=" M-330,312.5 L-560,370" stroke="#000000" />
		</g>
	</g>
	<g>
		<rect x="-30" y="0" width="20" height="20" />
	</g>
	<g>
		<rect x="650" y="60" width="20" height="20" />
	</g>
	<g>
		<rect x="570" y="60" width="20" height="20" />
	</g>
	<g>
		<rect x="490" y="60" width="20" height="20" />
	</g>
	<g>
		<rect x="410" y="60" width="20" height="20" />
	</g>
	<g>
		<rect x="330" y="60" width="20" height="20" />
	</g>
	<g>
		<rect x="250" y="60" width="20" height="20" />
	</g>
	<g>
		<rect x="170" y="60" width="20" height="20" />
	</g>
	<g>
		<rect x="90" y="60" width="20" height="20" />
	</g>
	<g>
		<rect x="10" y="60" width="20" height="20" />
	</g>
	<g>
		<rect x="-70" y="60" width="20" height="20" />
	</g>
	<g>
		<rect x="-150" y="60" width="20" height="20" />
	</g>
	<g>
		<rect x="-230" y="60" width="20" height="20" />
	</g>
	<g>
		<rect x="-310" y="60" width="20" height="20" />
	</g>
	<g>
		<rect x="-390" y="60" width="20" height="20" />
	</g>
	<g>
		<rect x="-470" y="60" width="20" height="20" />
	</g>
	<g>
		<rect x="-550" y="60" width="20" height="20" />
	</g>
	<g>
		<rect x="-630" y="60" width="20" height="20" />
	</g>
	<g>
		<rect x="-710" y="60" width="20" height="20" />
	</g>
	<g>
		<rect x="290" y="120" width="20" height="20" />
	</g>
	<g>
		<rect x="-390" y="120" width="20" height="20" />
	</g>
	<g>
		<rect x="430" y="180" width="20" height="20" />
	</g>
	<g>
		<rect x="350" y="180" width="20" height="20" />
	</g>
	<g>
		<rect x="270" y="180" width="20" height="20" />
	</g>
	<g>
		<rect x="190" y="180" width="20" height="20" />
	</g>
	<g>
		<rect x="110" y="180" width="20" height="20" />
	</g>
	<g>
		<rect x="30" y="180" width="20" height="20" />
	</g>
	<g>
		<rect x="-50" y="180" width="20" height="20" />
	</g>
	<g>
		<rect x="-130" y="180" width="20" height="20" />
	</g>
	<g>
		<rect x="-210" y="180" width="20" height="20" />
	</g>
	<g>
		<rect x="-290" y="180" width="20" height="20" />
	</g>
	<g>
		<rect x="-370" y="180" width="20" height="20" />
	</g>
	<g>
		<rect x="-450" y="180" width="20" height="20" />
	</g>
	<g>
		<rect x="-530" y="180" width="20" height="20" />
	</g>
	<g>
		<rect x="-610" y="180" width="20" height="20" />
	</g>
	<g>
		<rect x="-690" y="180" width="20" height="20" />
	</g>
	<g>
		<rect x="-770" y="180" width="20" height="20" />
	</g>
	<g>
		<rect x="-850" y="180" width="20" height="20" />
	</g>
	<g>
		<rect x="-10" y="240" width="20" height="20" />
	</g>
	<g>
		<rect x="-650" y="240" width="20" height="20" />
	</g>
	<g>
		<rect x="-10" y="300" width="20" height="20" />
	</g>
	<g>
		<rect x="-330" y="300" width="20" height="20" />
	</g>
	<g>
		<rect x="-10" y="360" width="20" height="20" />
	</g>
	<g>
		<rect x="-90" y="360" width="20" height="20" />
	</g>
	<g>
		<rect x="-170" y="360" width="20" height="20" />
	</g>
	<g>
		<rect x="-250" y="360" width="20" height="20" />
	</g>
	<g>
		<rect x="-330" y="360" width="20" height="20" />
	</g>
	<g>
		<rect x="-410" y="360" width="20" height="20" />
	</g>
	<g>
		<rect x="-490" y="360" width="20" height="20" />
	</g>
	<g>
		<rect x="-570" y="360" width="20" height="20" />
	</g>
</svg>
